<?xml version="1.0" encoding="UTF-8"?>
<svg id="Capa_1" data-name="Capa 1" xmlns="http://www.w3.org/2000/svg" viewBox="0 0 1080 400">
  <defs>
    <style>
      .cls-1 {
        stroke-width: 0px;
      }
    </style>
  </defs>
  <path class="cls-1" d="m344.69,52.54c32.01,0,63.72-.66,95.38.29,14.6.44,24,9.93,29.75,23.54,21.13,50.06,42.61,99.97,64.08,149.89,1.43,3.32,1.52,7.62,6.81,10.11,4.89-11.17,9.87-22.18,14.54-33.31,16.73-39.87,33.7-79.65,49.88-119.74,9.21-22.82,24.49-33.3,49.63-31.76,23.91,1.47,47.99.32,72.03.32.25,5.1-2.97,6.35-5.22,8.13-29.8,23.66-46.53,70.35-32.66,104.12,8.45,20.56,9.54,40.53,9.48,61.52-.02,6.79-.19,12.36-8.99,14.69-8.84,2.34-9.96,10.84-9.65,18.84,1.37,35.98,15.72,64.92,46.39,84.93,2.18,1.43,4.88,2.34,6.24,6.62-9.08.79-17.98,2.7-26.69,2.1-18.03-1.25-35.89,1.07-53.83,1.26-9.73.11-13.72-3.91-13.68-13.73.25-60.85-1.35-121.71,1.54-182.54.12-2.58.74-5.4-2.39-8.03-5.89,7.6-8.42,16.76-12.01,25.24-17.17,40.51-34.12,81.12-50.87,121.81-6.28,15.24-17.23,22.41-33.61,22.84-17.23.45-29.63-6.12-36.39-22.27-18.17-43.41-36.28-86.85-54.49-130.26-2.64-6.31-5.64-12.46-10.27-18.54-.17,3.91-.49,7.83-.49,11.74,0,59.34-.24,118.68.33,178.02.11,11.81-3.9,15.71-15.2,15-11.06-.7-22.2-.23-33.3-.2-6.77.02-10.66-2.27-10.61-10.02.23-40.58-.46-81.18.55-121.73.35-13.98,9.67-26.24,11.62-40.53,6.7-48.93-3.43-91.28-44.92-122.33-1.5-1.12-3.25-2.08-2.98-6.02Z"/>
  <path class="cls-1" d="m727.64,256.04c3.06,0,6.16.29,9.18-.05,12.45-1.41,21.91.25,25.06,15.49,1.9,9.19,10.34,15.37,19,18.84,27.4,10.99,55.23,11.21,82.67.26,11.16-4.45,17.53-13.55,17.57-25.95.04-12.13-6.73-19.97-17.41-24.63-4.89-2.13-9.93-4.13-15.1-5.36-17.1-4.08-34.26-7.9-51.45-11.58-15-3.22-29.78-7.23-43.86-13.29-29.92-12.89-48.05-34.19-48.94-68.27-.98-37.57,14.51-65.98,48.45-81.45,40.49-18.46,82.85-18.54,123.94-1.8,33.73,13.74,51.24,41,55.22,77.09.71,6.39-1.71,9.41-8.12,9.4-14.55-.04-29.09-.07-43.64-.02-5.02.02-7.76-2.34-8.7-7.22-4.59-23.95-22.28-31.27-43.44-33.61-14.22-1.57-28.29-.12-41.86,4.73-13.06,4.67-20.5,13.58-20.8,24.61-.31,11.44,6.18,19.67,20.04,24.81,20.9,7.75,43.12,10.05,64.61,15.4,14.51,3.61,28.89,7.46,42.62,13.45,25.93,11.32,43.77,29.46,47.18,58.66,3.96,33.98-3.27,64.28-32.72,85.32-30.67,21.91-65.98,24.92-102.07,22.26-18.69-1.37-37.13-4.97-54.36-13.07-32.35-15.2-49.4-40.93-52.84-76.2-.52-5.32,1.16-7.97,6.79-7.85,7.65.15,15.31.04,22.97.04Z"/>
  <path class="cls-1" d="m139.47,203.9c0-44-.05-88,.02-132,.03-17,3.65-21.37,20.6-21.87,25.22-.75,50.5-1.4,75.66,1.35,16.01,1.75,31.82-1.72,48.03.09,52.39,5.85,85.3,38.19,91.44,91.01,2.78,23.9-.65,46.67-11,67.98-18.03,37.13-50.73,51.46-89.7,53.63-21.36,1.19-42.85.61-64.26.06-9.65-.25-12.61,3.3-12.38,12.66.53,21.41-.15,42.85.33,64.27.2,9.05-3.33,12.42-12.06,12.18-11.47-.31-22.97-.4-34.43.05-9.41.37-12.66-3.38-12.59-12.82.35-45.53.16-91.06.16-136.59h.17Zm58.49-45.36h.04c0,13.74.18,27.49-.08,41.23-.13,6.95,1.89,10.69,9.67,10.58,20.61-.3,41.26.59,61.83-.34,29.46-1.34,45.97-17.78,47.34-45.44,1.62-32.64-12.18-52.2-42.77-55.45-22.66-2.4-45.74-.79-68.63-.95-6.26-.04-7.46,3.99-7.44,9.15.05,13.74.02,27.49.02,41.23Z"/>
</svg>