<?xml version="1.0" encoding="UTF-8"?>
<svg id="Capa_1" data-name="Capa 1" xmlns="http://www.w3.org/2000/svg" viewBox="0 0 1080 1080">
  <defs>
    <style>
      .cls-1 {
        stroke-width: 0px;
      }
    </style>
  </defs>
  <path class="cls-1" d="m67.76,465.88c-.1-38.14.34-76.29,4.93-114.19,4.91-40.62,22.41-75.51,50.26-105.36,6.33-6.79,14.65-10.51,22.43-14.94,56.46-32.15,110.36-68.41,165.58-102.53,49.8-30.77,99.85-61.04,153.15-85.57,53.64-24.68,106.69-22.21,159.27,2.87,49.49,23.61,96.18,52.17,142.73,81,56.66,35.09,112.63,71.3,171.31,103.08,24.42,13.23,39.43,35.76,51.8,59.89,11.97,23.34,18.27,48.44,20.76,74.41.71,7.42-1.18,15.06-1.21,22.6-.14,34.07-1.27,68.2.22,102.21,2.86,65.47,4.1,130.93,2.65,196.42-.87,39.25-5.75,77.82-27.03,112.38-15.24,24.76-35.26,44.73-59.48,60.52-56.6,36.9-114.86,71.06-174.05,103.63-46.67,25.68-92.87,52.2-140.98,75.22-49.1,23.5-97.25,21.01-145.58-2.05-45.01-21.47-87.9-46.7-130.65-72.21-63-37.58-124.98-76.84-188.79-113.1-24.39-13.86-40.12-36.65-53.88-60.64-12.41-21.64-16.38-45.25-16.18-69.7.35-42.82-2.5-85.53-4.07-128.27-1.54-41.88-2.86-83.76-3.21-125.66Zm31.4,238.87c.95,41.38,14.17,79.3,45.36,110.15,12.51,12.38,28.73,18.64,43.47,27.28,74.35,43.57,146.4,90.98,221.81,132.76,30.54,16.92,60.63,34.83,94.23,45.39,25.82,8.11,51.58,7.62,77.19-1.12,33.28-11.35,63.42-29.21,93.92-46.16,77.12-42.85,152.24-89.12,227.86-134.51,36.12-21.68,64.04-50.23,73.96-92.99,4.97-21.41,6.09-43.24,6.53-65.01,1.14-56.18.34-112.37-1.58-168.54-.47-13.67-.16-27.38-.81-41.04-1.23-25.61-1.87-51.23.13-76.78,2.3-29.32-1.01-57.56-13.81-84.28-14.33-29.91-33.9-54.61-65.24-68.75-15.61-7.04-30.36-16.05-45.22-24.65-59.48-34.42-115.86-73.88-175.48-108.05-32.8-18.8-65.17-38.98-102.18-48.7-33.47-8.79-66.56-8.59-98.8,7.09-35.37,17.21-70,35.72-103.97,55.5-71.97,41.92-141.55,87.73-212.6,131.14-8.4,5.13-18.06,8.58-24.83,16.04-13.45,14.84-23.03,32.06-30.25,50.71-11.51,29.75-11.35,61.14-12.25,92.15-1.45,50.05,1.07,100.08,2.66,150.12,1.49,46.82,4.31,93.67-.11,142.24Z"/>
  <path class="cls-1" d="m655.28,682.51c0,87.38-.23,174.76.28,262.14.07,11.33-3.58,17.23-13.63,21.98-18.67,8.82-36.61,19.1-55.9,26.74-36.97,14.65-72.48,9.72-107.35-6.79-20.8-9.85-40.86-21.12-61.23-31.81-7.02-3.69-9.08-8.26-9.07-15.86.19-148.55.13-297.1.13-445.64,0-27.38-.72-54.78.17-82.13,1.35-41.26,19.85-73.44,54.38-96.17,7.53-4.96,15.46-9.32,23.34-13.71,12.16-6.78,16.92-17.52,16.43-31.25-.13-3.54-.11-7.08-.03-10.62.11-4.87-1.58-7.97-7-7.67-6.66.37-9.15-3.66-10.47-9.37-2.39-10.38-1.97-20.88-1.1-31.3.61-7.39,5.21-11.95,13.04-10.75,9.32,1.42,11.89-2.61,11.05-11.15-.54-5.48-.3-11.07-.07-16.59.25-6-2.4-8.41-8.33-8.27-9.32.21-18.65-.19-27.96.11-6.98.22-11.16-1.89-11.33-9.64-.12-5.51-1.32-10.99-1.39-16.5-.1-9.28,2.55-12.12,11.86-12.28,15.72-.27,31.46.04,47.18-.16,16.86-.21,33.78,1.09,50.58-1.64,3.41-.55,7-.35,10.47-.09,24.85,1.87,27.49,4.63,24.45,31.38-.71,6.21-4.16,9.07-10.62,8.9-10.19-.26-20.39.12-30.58-.08-6.8-.14-9.49,2.81-8.06,11.5.78,4.72.66,9.54,0,14.29-1.09,7.77,1.05,10.35,7.32,10.22,14.14-.3,16.31,1.92,16.59,15.81.16,8.15,0,16.31.07,24.46.06,6.12-2.45,10.34-8.8,10.89-5.79.5-7.4,3.67-7.06,8.77.04.57.02,1.5-.07,2.06-3.29,22.34,6.4,35.71,26.78,45.68,36.76,17.98,58.58,48.57,66.5,88.93,1.67,8.51-.39,16.82-.37,25.24.18,86.8.11,173.6.11,260.39-.11,0-.23,0-.34,0Z"/>
  <path class="cls-1" d="m688.27,826.6c2.29-68.35,3.67-136.71,3.7-205.12.01-25,12.68-45.91,32.53-61.19,7.29-5.61,8.55-10.4,6.29-18.92-8.82-33.19-16.83-66.59-25.1-99.92-3.25-13.1,1.24-18.32,14.53-16.58,4.58.6,9.11,1.93,13.55,3.31,8.77,2.72,13.98,7.98,15.33,17.86,3.82,27.95,8.77,55.75,12.6,83.71,1.14,8.29,3.85,8.49,18.64,7.77,8.19-.39,5.34-6.69,5.06-11.23-1.36-22.64-2.75-45.28-4.29-67.91-.45-6.57,1.83-9.64,8.85-9.5,15.14.3,30.29.25,45.43.03,6.93-.1,9.17,2.82,8.65,9.58-1.79,23.48-3.22,46.99-4.78,70.49-.28,4.26-.51,9.13,5.55,8.46,6.05-.67,14.94,4.73,17.02-6.37,2.85-15.15,5.43-30.36,8.16-45.53,2.62-14.6,4.93-29.28,8.03-43.78,2.65-12.4,28.77-22,39.26-14.8,4.01,2.76,4,6.77,2.93,10.97-8.55,33.86-16.69,67.83-25.9,101.51-2.72,9.95-1.85,16.51,6.4,23.5,19.59,16.61,27.17,39.23,29.12,64.18,3.45,44.2.31,88.51,2.11,132.68.89,21.9-7.89,36.11-24.35,48.49-22.21,16.7-46.6,29.77-70.23,44.08-41.59,25.18-83.45,49.9-125.21,74.79-8.6,5.13-9.97,4.51-14.15-4.69-5.54-12.2-7.25-25.28-7.69-38.3-.65-19.18-3.1-38.32-2.02-57.57Z"/>
  <path class="cls-1" d="m139.28,688.81c-.03-34.93-.05-69.88,3.83-104.65,2.58-23.19,10.99-43.96,27.79-60.73,14.23-14.2,32.05-20.7,51.45-23.57,6.9-1.02,13.89-1.62,20.85-1.91,5.25-.22,7.82-1.92,8.19-7.65,1.83-28.1,1.9-28.25,28.22-37.02,25.41-8.46,49.5-20.6,75.65-26.97,4.81-1.17,9.62-2.46,14.65-1.78,5.62.76,10.17,3.28,11.58,9.09,1.5,6.18-2.3,9.97-7.26,12.5-12.01,6.12-25.26,8.8-37.9,13.15-1.93.66-3.9,1.19-5.82,1.87-25.3,8.97-17.19,6.3-20.86,29.98-.88,5.7,3.1,6.86,7.43,7.44,12.98,1.75,25.99,3.2,38.78,6.21,9.66,2.27,19.21,4.82,28.34,8.74,6.78,2.91,10.65,7.84,10.76,15.46.14,10.5-5.12,14.97-15.39,12.89-17.93-3.63-35.15-10.37-53.68-11.53-13.17-.83-14.51-.14-14.56,13.4,0,2.33.18,4.68-.02,6.99-.56,6.31,1.84,9.28,8.49,10.47,12.45,2.22,23.92,7.44,34.15,14.93,15.2,11.15,23.64,25.56,23.58,45.2-.3,96.11-.12,192.22-.18,288.33,0,6.26,1.93,14.47-4.26,17.61-5.16,2.61-10.39-3.62-15.25-6.56-53.28-32.28-106.01-65.48-160.08-96.44-5.88-3.37-7.84-7.47-7.84-14.05,0-43.67,4.56-87.2,3.82-130.9-.36-21.25-.21-42.5-.78-63.76-.45-16.73,8.64-29.25,21.66-38.87,8.96-6.63,19.08-11.29,29.78-14.32,6.38-1.81,8.71-5.34,8.92-11.89.71-22.02-.21-23.02-22.17-19.69-27.98,4.23-47.48,23.91-52.84,53.08-6.58,35.81-5.39,71.86-3.78,107.96,1.16,26.15,3.06,52.28.35,78.5-1.64,15.85-2.03,17.43-12.03,17.69-12.57.34-20.16-6.23-21.35-18.91-1.5-15.95-2.45-31.92-2.24-47.96.14-10.77.03-21.55.03-32.33Z"/>
</svg>